HIERARCHY
ROOT Hips
{
	OFFSET 0.00000 0.00000 0.00000
	CHANNELS 6 Xposition Yposition Zposition Zrotation Yrotation Xrotation 
	JOINT LHipJoint
	{
		OFFSET 0 0 0
		CHANNELS 3 Zrotation Yrotation Xrotation
		JOINT LeftUpLeg
		{
			OFFSET 1.51378 -1.89840 0.47569
			CHANNELS 3 Zrotation Yrotation Xrotation
			JOINT LeftLeg
			{
				OFFSET 2.53380 -6.96157 0.00000
				CHANNELS 3 Zrotation Yrotation Xrotation
				JOINT LeftFoot
				{
					OFFSET 2.74874 -7.55212 0.00000
					CHANNELS 3 Zrotation Yrotation Xrotation
					JOINT LeftToeBase
					{
						OFFSET 0.18263 -0.50178 1.99677
						CHANNELS 3 Zrotation Yrotation Xrotation
						End Site
						{
							OFFSET 0.00000 -0.00000 1.03711
						}
					}
				}
			}
		}
	}
	JOINT RHipJoint
	{
		OFFSET 0 0 0
		CHANNELS 3 Zrotation Yrotation Xrotation
		JOINT RightUpLeg
		{
			OFFSET -1.43037 -1.89840 0.47569
			CHANNELS 3 Zrotation Yrotation Xrotation
			JOINT RightLeg
			{
				OFFSET -2.69849 -7.41406 0.00000
				CHANNELS 3 Zrotation Yrotation Xrotation
				JOINT RightFoot
				{
					OFFSET -2.69369 -7.40087 0.00000
					CHANNELS 3 Zrotation Yrotation Xrotation
					JOINT RightToeBase
					{
						OFFSET -0.28932 -0.79491 2.04975
						CHANNELS 3 Zrotation Yrotation Xrotation
						End Site
						{
							OFFSET 0.00009 0.00010 1.09536
						}
					}
				}
			}
		}
	}
	JOINT LowerBack
	{
		OFFSET 0 0 0
		CHANNELS 3 Zrotation Yrotation Xrotation
		JOINT Spine
		{
			OFFSET 0.01912 1.94784 -0.02419
			CHANNELS 3 Zrotation Yrotation Xrotation
			JOINT Spine1
			{
				OFFSET 0.07565 1.94258 0.01909
				CHANNELS 3 Zrotation Yrotation Xrotation
				JOINT Neck
				{
					OFFSET 0 0 0
					CHANNELS 3 Zrotation Yrotation Xrotation
					JOINT Neck1
					{
						OFFSET -0.07010 1.86195 0.18976
						CHANNELS 3 Zrotation Yrotation Xrotation
						JOINT Head
						{
							OFFSET 0.02284 1.86595 -0.31497
							CHANNELS 3 Zrotation Yrotation Xrotation
							End Site
							{
								OFFSET 0.01200 1.90122 -0.12838
							}
						}
					}
				}
				JOINT LeftShoulder
				{
					OFFSET 0 0 0
					CHANNELS 3 Zrotation Yrotation Xrotation
					JOINT LeftArm
					{
						OFFSET 3.39189 0.96331 -0.10437
						CHANNELS 3 Zrotation Yrotation Xrotation
						JOINT LeftForeArm
						{
							OFFSET 5.14845 -0.00000 0.00000
							CHANNELS 3 Zrotation Yrotation Xrotation
							JOINT LeftHand
							{
								OFFSET 3.43674 -0.00000 -0.00000
								CHANNELS 3 Zrotation Yrotation Xrotation
								JOINT LeftFingerBase
								{
									OFFSET 0 0 0
									CHANNELS 3 Zrotation Yrotation Xrotation
									JOINT LeftHandIndex1
									{
										OFFSET 0.58871 -0.00000 0.00000
										CHANNELS 3 Zrotation Yrotation Xrotation
										End Site
										{
											OFFSET 0.47463 -0.00000 0.00000
										}
									}
								}
								JOINT LThumb
								{
									OFFSET 0 0 0
									CHANNELS 3 Zrotation Yrotation Xrotation
									End Site
									{
										OFFSET 0.48188 -0.00000 0.48188
									}
								}
							}
						}
					}
				}
				JOINT RightShoulder
				{
					OFFSET 0 0 0
					CHANNELS 3 Zrotation Yrotation Xrotation
					JOINT RightArm
					{
						OFFSET -3.34934 1.18831 -0.19928
						CHANNELS 3 Zrotation Yrotation Xrotation
						JOINT RightForeArm
						{
							OFFSET -5.42185 -0.00000 0.00000
							CHANNELS 3 Zrotation Yrotation Xrotation
							JOINT RightHand
							{
								OFFSET -3.51317 -0.00000 -0.00000
								CHANNELS 3 Zrotation Yrotation Xrotation
								JOINT RightFingerBase
								{
									OFFSET 0 0 0
									CHANNELS 3 Zrotation Yrotation Xrotation
									JOINT RightHandIndex1
									{
										OFFSET -0.66319 -0.00000 0.00000
										CHANNELS 3 Zrotation Yrotation Xrotation
										End Site
										{
											OFFSET -0.53468 -0.00000 0.00000
										}
									}
								}
								JOINT RThumb
								{
									OFFSET 0 0 0
									CHANNELS 3 Zrotation Yrotation Xrotation
									End Site
									{
										OFFSET -0.54284 -0.00000 0.54284
									}
								}
							}
						}
					}
				}
			}
		}
	}
}
MOTION
Frames: 10
Frame Time: .0083333
-9.4141 19.3396 -4.9587 399.7650 -91.4321 -408.7980 0.0000 0.0000 0.0000 -13.6722 -13.8568 -21.3566 6.9635 15.3011 48.7363 -0.1266 -11.9090 15.0883 0.9656 -6.2565 -17.5304 0.0000 0.0000 0.0000 21.1904 9.3294 -21.2065 -6.4685 -14.8675 46.8342 -0.3353 -10.0198 11.6481 -0.4996 -4.5314 12.5767 -0.0958 1.2621 0.8116 3.3863 1.5874 2.0725 3.5430 0.7412 1.5729 -4.2847 1.1126 -5.9907 1.2026 -0.1433 39.8386 1.0571 -1.3020 14.8128 0.0000 0.0000 0.0000 -84.7545 39.5737 16.0264 47.3268 -51.8588 -24.0552 -0.0000 0.0000 -4.9534 18.4005 14.3039 4.6986 -7.1250 0.0000 -0.0000 -8.4313 44.8529 0.0308 0.0000 0.0000 0.0000 76.6081 -33.8281 36.7193 -39.8957 48.0080 -18.3617 0.0000 -0.0000 -1.6346 -35.8321 13.6493 -9.6700 7.1250 -0.0000 -0.0000 -5.6812 -13.3653 -4.2354
-9.6246 18.9764 -4.9608 395.5730 -91.6102 -405.5030 0.0000 0.0000 0.0000 -13.9201 -13.3743 -20.4373 7.4558 15.7040 50.5781 -0.1807 -12.5768 15.3248 0.7397 -5.4941 -15.3235 0.0000 0.0000 0.0000 21.6254 8.9542 -20.3727 -6.9750 -15.3108 48.7795 -0.3726 -9.6113 11.9373 -0.6096 -4.9975 13.9016 -0.0554 1.2874 0.5769 3.3765 1.6200 2.0232 3.5152 0.7587 1.6534 -3.8060 0.9920 -5.8069 0.5311 -0.0434 38.7053 0.7131 -1.2200 14.2181 -0.0000 0.0000 0.0000 -86.1277 40.0755 14.1371 47.0127 -51.7172 -23.8084 -0.0000 0.0000 -5.3872 19.7363 14.4750 5.1244 -7.1250 0.0000 -0.0000 -7.2475 45.1923 -0.0346 -0.0000 0.0000 0.0000 77.5213 -33.7154 34.9794 -38.4057 47.0965 -17.2622 0.0000 -0.0000 -1.4377 -36.3339 12.5676 -9.0922 7.1250 -0.0000 -0.0000 -6.1733 -14.5741 -4.4476
-9.8172 18.5952 -4.9669 391.7940 -91.7653 -402.6150 0.0000 0.0000 0.0000 -14.1830 -12.9641 -19.7122 8.0049 16.1228 52.5803 -0.2400 -13.2275 15.5010 0.5973 -4.9475 -13.7590 0.0000 0.0000 0.0000 22.0144 8.5202 -19.7852 -7.6215 -15.8337 51.1877 -0.2669 -7.6942 9.9513 -0.0761 -1.7790 4.8954 -0.0740 1.3138 0.6653 3.3472 1.6620 1.9333 3.4916 0.7826 1.5090 -3.4001 0.9640 -5.6471 0.0139 0.1430 37.5894 0.4660 -1.0933 13.6569 0.0000 -0.0000 0.0000 -87.4227 40.2266 12.3311 46.0100 -51.2538 -23.0238 -0.0000 0.0000 -6.0401 19.1539 15.3346 5.2482 -7.1250 0.0000 -0.0000 -7.9822 46.0124 -0.2007 0.0000 -0.0000 0.0000 78.5365 -33.3305 33.2380 -36.4911 45.8480 -15.8738 0.0000 -0.0000 -1.9402 -36.3303 11.4194 -8.2840 7.1250 -0.0000 -0.0000 -6.3344 -15.9614 -4.3755
-9.9937 18.1950 -4.9759 391.6120 -91.9643 -403.3300 0.0000 0.0000 0.0000 -14.3236 -12.6541 -19.1242 8.5670 16.5209 54.5803 -0.3397 -14.1379 15.5597 0.5856 -4.8997 -13.6227 0.0000 0.0000 0.0000 22.5396 7.7348 -19.3955 -8.4422 -16.4351 54.1403 -0.0860 -4.8662 5.8128 -0.2086 2.9407 -8.1136 -0.0024 1.3646 0.9342 3.2851 1.7359 1.9344 3.3799 0.8226 1.3586 -3.1601 1.0117 -6.0044 -0.1248 0.3552 36.7959 0.4056 -0.9369 13.3694 0.0000 0.0000 0.0000 -88.4792 39.8266 10.7780 44.3535 -50.4478 -21.7391 -0.0000 0.0000 -6.9306 20.0163 15.9891 5.7302 -7.1250 0.0000 -0.0000 -7.3377 46.8061 -0.3288 0.0000 0.0000 0.0000 79.8480 -32.3803 31.2875 -34.0799 44.1439 -14.1687 0.0000 -0.0000 -3.3782 -36.6131 10.1736 -7.4768 7.1250 -0.0000 -0.0000 -6.7007 -17.4303 -4.4164
-10.1559 17.7810 -4.9802 391.5040 -92.1782 -404.2510 0.0000 0.0000 0.0000 -14.4175 -12.5674 -18.4767 9.2030 16.9366 56.7894 -0.3739 -14.4853 15.6721 0.2420 -3.1657 -8.7405 0.0000 0.0000 0.0000 23.1000 6.6826 -18.9053 -9.3900 -17.0522 57.4293 0.0190 -2.5819 -1.8305 -1.1192 6.7205 -18.8898 0.1390 1.4757 1.4547 3.2228 1.8872 2.1057 3.2242 0.8993 1.2403 -3.0114 1.0312 -6.7142 -0.1393 0.5151 36.1478 0.4045 -0.8004 13.2301 0.0000 -0.0000 0.0000 -89.2694 38.8052 9.5794 42.2163 -49.3295 -20.1045 -0.0000 0.0000 -8.1912 20.8837 17.1653 6.4246 -7.1250 0.0000 -0.0000 -6.8107 48.1558 -0.5325 0.0000 -0.0000 0.0000 81.3435 -30.8311 28.8953 -31.2999 41.9818 -12.2699 0.0000 -0.0000 -4.8635 -36.7173 8.9739 -6.6360 7.1250 -0.0000 -0.0000 -6.9357 -18.8798 -4.3502
-10.3063 17.3594 -4.9803 392.0900 -92.2862 -405.7570 0.0000 0.0000 0.0000 -14.4766 -12.7146 -18.0103 9.9366 17.3740 59.2761 -0.7221 -16.1530 12.8494 0.0013 0.2331 0.6404 0.0000 0.0000 0.0000 23.4504 6.0239 -18.5452 -10.4228 -17.6409 60.8925 -0.1029 -2.4226 -7.4577 -2.2130 9.2963 -26.7268 0.2988 1.5778 2.0443 3.1630 2.0291 2.2648 3.0571 0.9715 1.0732 -2.9242 1.0534 -7.4022 -0.1885 0.6878 35.5589 0.4020 -0.6750 13.1162 -0.0000 0.0000 0.0000 -89.6837 37.3997 8.9713 39.6215 -47.8441 -18.1582 -0.0000 0.0000 -10.0359 20.7403 18.3544 6.8000 -7.1250 0.0000 -0.0000 -7.2649 49.3748 -0.7874 -0.0000 0.0000 0.0000 82.5498 -28.9692 26.7390 -28.3453 39.4322 -10.3423 0.0000 -0.0000 -6.4046 -36.5467 7.9163 -5.8289 7.1250 -0.0000 -0.0000 -6.9544 -20.1947 -4.1565
-10.4412 16.9992 -4.9828 392.3800 -92.2389 -406.8080 0.0000 0.0000 0.0000 -14.6219 -12.7445 -17.4711 10.8825 17.8771 62.3995 -1.4348 -21.7874 0.6551 2.1203 -9.1124 -26.1475 0.0000 0.0000 0.0000 23.4606 5.6006 -18.2838 -11.4155 -18.1325 64.1237 -0.4432 -1.7319 -13.3250 -1.9358 8.7311 -24.9576 0.4165 1.6788 2.5823 2.9732 2.1731 2.4069 2.7791 1.0462 0.9220 -2.4635 1.0611 -8.1331 -0.4113 0.8004 35.0939 0.2570 -0.5553 13.0720 0.0000 0.0000 0.0000 -89.6491 35.5524 8.8019 36.5108 -45.8613 -15.8880 -0.0000 0.0000 -11.6943 20.8871 19.1988 7.1526 -7.1250 0.0000 -0.0000 -7.3646 50.2766 -0.9624 0.0000 0.0000 0.0000 83.6612 -26.7225 24.8749 -25.2285 36.4367 -8.4253 0.0000 -0.0000 -7.7205 -35.9531 7.3542 -5.3041 7.1250 -0.0000 -0.0000 -6.6030 -20.9470 -3.8311
-10.5700 16.6632 -4.9849 394.8600 -92.2125 -409.8620 0.0000 0.0000 0.0000 -14.3016 -13.4050 -17.2766 12.0055 18.3930 66.0062 -1.1199 -20.6762 -2.5616 1.6075 -7.9956 -22.7006 0.0000 0.0000 0.0000 23.4209 5.2701 -18.1077 -12.2868 -18.5093 66.8950 -1.0583 0.0917 -19.4236 -1.3476 7.3492 -20.7542 0.3612 1.7121 2.9300 3.0208 2.2117 2.6182 2.8519 1.0606 0.9392 -2.2294 1.0906 -9.1022 -0.8274 1.0540 34.7906 0.0951 -0.4353 13.1529 0.0000 0.0000 0.0000 -90.1540 33.0300 8.3936 32.8616 -43.2234 -13.3272 -0.0000 0.0000 -12.7769 21.3978 19.3559 7.3998 -7.1250 0.0000 -0.0000 -6.9105 50.5242 -0.9447 0.0000 0.0000 0.0000 84.2473 -23.7947 22.9027 -21.7836 32.7316 -6.4684 0.0000 -0.0000 -7.7979 -35.4752 7.3860 -5.2344 7.1250 -0.0000 -0.0000 -6.2581 -20.9589 -3.6269
-10.6937 16.2925 -4.9875 396.8690 -92.2512 -412.3010 0.0000 0.0000 0.0000 -14.1027 -13.4140 -17.5147 13.0253 18.7913 69.2041 -0.7726 -20.6598 -7.2436 0.7938 -5.6870 -15.8788 0.0000 0.0000 0.0000 23.3855 4.8793 -18.2765 -13.0834 -18.8121 69.3843 -1.7247 1.5891 -24.3893 -0.8802 5.9809 -16.7289 0.2296 1.7533 3.1738 3.1877 2.2581 2.7555 3.0921 1.0771 0.9305 -2.1644 1.1760 -9.9300 -1.2826 1.4095 34.6787 -0.0405 -0.3122 13.2891 -0.0000 -0.0000 0.0000 -90.6918 30.1034 8.0039 28.8565 -39.8929 -10.6686 -0.0000 0.0000 -13.7227 21.5510 19.3673 7.4616 -7.1250 0.0000 -0.0000 -6.7634 50.5613 -0.9306 -0.0000 -0.0000 0.0000 84.6035 -20.6126 20.2266 -18.1840 28.3921 -4.6364 0.0000 -0.0000 -6.4505 -34.3543 8.7615 -5.9441 7.1250 -0.0000 -0.0000 -5.3039 -19.4292 -3.2514
-10.8158 15.9986 -4.9922 404.0400 -92.6092 -419.6450 0.0000 0.0000 0.0000 -13.2923 -12.9311 -18.0368 13.9312 19.0930 71.9943 -0.4129 -20.9796 -11.2659 0.3765 -3.9407 -10.9099 0.0000 0.0000 0.0000 23.8508 4.2047 -18.3789 -13.6570 -19.0067 71.1542 -2.4353 2.5337 -28.8840 -0.5566 4.7790 -13.2793 0.5960 1.8094 3.1944 3.4519 2.3356 2.7036 3.1552 1.1172 0.8657 -2.1412 1.3493 -10.4204 -1.5871 1.8101 34.8149 -0.1072 -0.1729 13.4609 -0.0000 0.0000 0.0000 -91.0887 27.2374 7.4365 25.0948 -36.3008 -8.3460 -0.0000 0.0000 -14.5000 20.8473 19.5056 7.2464 -7.1250 0.0000 -0.0000 -7.4951 50.5890 -1.0373 -0.0000 0.0000 0.0000 84.8597 -17.6984 16.7449 -14.8368 23.9183 -3.1595 0.0000 -0.0000 -3.4466 -33.1214 10.4330 -6.7379 7.1250 -0.0000 -0.0000 -4.2525 -17.6013 -2.7752
